#!OML:ASF F:\VICON\USERDATA\INSTALL\rory3\rory3.ASF
:FULLY-SPECIFIED
:DEGREES
2110
root 10.6343 17.8353 8.46402 359.77 -48.5004 1.46728
lowerback 9.29629 1.24263 1.8266
upperback 1.4586 1.84552 0.929267
thorax -3.66799 0.886026 -0.289423
lowerneck -17.1746 -4.70058 -11.5178
upperneck 37.1404 -6.21972 6.28584
head 17.0006 -3.5352 3.58123
rclavicle -2.22639e-014 -6.36111e-015
rhumerus -33.2497 -11.5723 -78.4985
rradius 42.2127
rwrist 0.888696
rhand -16.1049 9.51056
rfingers 7.12502
rthumb 10.099 -20.2271
lclavicle -2.22639e-014 -6.36111e-015
lhumerus -35.5405 4.02605 84.5887
lradius 32.8684
lwrist -8.4926
lhand -17.8732 25.0113
lfingers 7.12502
lthumb 8.39272 54.8245
rfemur 5.44647 3.46201 27.4967
rtibia 25.324
rfoot -15.6656 4.11807
rtoes 7.49441
lfemur -17.5361 -7.62944 -14.286
ltibia 10.7068
lfoot -0.781589 -13.5541
ltoes -17.4575
2111
root 10.5631 17.8265 8.57133 359.64 -49.0903 1.39203
lowerback 9.38314 1.24492 1.76141
upperback 1.42164 1.84734 0.991798
thorax -3.75888 0.886946 -0.190962
lowerneck -16.9243 -4.70851 -11.6012
upperneck 37.0926 -6.28498 6.37844
head 16.9291 -3.56942 3.62503
rclavicle 1.43125e-014 -3.97569e-015
rhumerus -33.7047 -11.632 -78.0595
rradius 41.894
rwrist 1.24824
rhand -16.012 9.21848
rfingers 7.12502
rthumb 10.1886 -20.5148
lclavicle 1.43125e-014 -3.97569e-015
lhumerus -35.7045 4.09583 84.6545
lradius 32.8366
lwrist -8.41069
lhand -17.9356 25.4624
lfingers 7.12502
lthumb 8.33249 55.2781
rfemur 5.73112 3.79785 27.4559
rtibia 25.9558
rfoot -15.3478 4.19989
rtoes 6.18312
lfemur -17.1832 -8.12325 -14.2908
ltibia 11.4102
lfoot -0.130151 -13.7891
ltoes -14.3217
2112
root 10.4926 17.824 8.68133 359.673 -49.6872 1.23807
lowerback 9.37061 1.28743 1.83971
upperback 1.36626 1.9137 1.01371
thorax -3.8067 0.91832 -0.220837
lowerneck -16.7912 -4.76664 -11.612
upperneck 37.1755 -6.45028 6.47069
head 16.9675 -3.63602 3.63919
rclavicle -4.85035e-014 7.95139e-016
rhumerus -34.2706 -11.6238 -77.7486
rradius 41.7589
rwrist 1.07284
rhand -16.1229 8.5718
rfingers 7.12502
rthumb 10.0816 -21.1667
lclavicle -4.85035e-014 7.95139e-016
lhumerus -35.8272 4.00986 84.7252
lradius 32.7617
lwrist -8.51317
lhand -17.8221 25.4054
lfingers 7.12502
lthumb 8.44204 55.2166
rfemur 5.83154 3.92616 27.3808
rtibia 26.6968
rfoot -14.9898 4.47526
rtoes 5.45598
lfemur -16.9152 -8.3974 -14.2899
ltibia 12.0934
lfoot 0.419395 -14.4324
ltoes -10.5602
2113
root 10.419 17.8268 8.79099 359.717 -50.324 1.07809
lowerback 9.27997 1.35549 1.93561
upperback 1.3761 2.01138 1.03014
thorax -3.74176 0.966079 -0.267028
lowerneck -16.6752 -4.85674 -11.7208
upperneck 37.2102 -6.65825 6.65287
head 17.0009 -3.71968 3.70189
rclavicle 6.93758e-014 -2.46493e-014
rhumerus -34.633 -11.7922 -77.4372
rradius 41.5005
rwrist 0.875589
rhand -16.5022 8.00289
rfingers 7.12502
rthumb 9.71561 -21.753
lclavicle 6.93758e-014 -2.46493e-014
lhumerus -35.8588 4.08554 84.7415
lradius 32.6906
lwrist -8.8088
lhand -17.8785 25.3059
lfingers 7.12502
lthumb 8.38764 55.1193
rfemur 5.87808 3.99384 27.2573
rtibia 27.5581
rfoot -14.5523 4.94863
rtoes 5.64417
lfemur -16.6731 -8.4581 -14.3125
ltibia 12.7961
lfoot 0.618488 -15.2985
ltoes -8.83917
2114
root 10.3431 17.8311 8.89996 359.523 -50.9912 1.16035
lowerback 9.24273 1.37814 1.75312
upperback 1.3976 2.02288 1.06341
thorax -3.70609 0.974661 -0.130329
lowerneck -16.5998 -4.85754 -11.7456
upperneck 37.255 -6.69313 6.68503
head 17.0136 -3.7405 3.71533
rclavicle 4.37326e-014 2.14687e-014
rhumerus -34.8708 -11.9659 -77.0277
rradius 41.067
rwrist 0.88846
rhand -16.4079 8.25897
rfingers 7.12502
rthumb 9.80661 -21.4927
lclavicle 4.37326e-014 2.14687e-014
lhumerus -35.9224 4.43085 84.6939
lradius 32.7456
lwrist -8.75162
lhand -17.8201 25.4109
lfingers 7.12502
lthumb 8.44393 55.2221
rfemur 5.8815 4.11115 26.9749
rtibia 28.5804
rfoot -13.9759 5.46759
rtoes 5.47498
lfemur -16.3274 -8.22402 -14.5437
ltibia 13.4387
lfoot 0.722418 -15.591
ltoes -8.82794
2115
root 10.2675 17.839 9.0075 359.26 -51.7091 1.32145
lowerback 9.17815 1.43714 1.58207
upperback 1.44668 2.08084 1.05203
thorax -3.62409 1.00625 -0.0506801
lowerneck -16.5446 -4.84898 -11.7217
upperneck 37.305 -6.71954 6.69854
head 17.0291 -3.75269 3.71338
rclavicle 4.19436e-014 -4.77083e-015
rhumerus -35.1262 -12.0982 -76.653
rradius 40.6876
rwrist 0.724306
rhand -16.2035 8.69544
rfingers 7.12502
rthumb 10.0039 -21.0468
lclavicle 4.19436e-014 -4.77083e-015
lhumerus -35.8391 4.78059 84.6188
lradius 32.6235
lwrist -8.78913
lhand -17.6242 25.3904
lfingers 7.12502
lthumb 8.63296 55.1939
rfemur 5.74515 4.30527 26.654
rtibia 29.8349
rfoot -13.2678 5.90994
rtoes 4.8388
lfemur -15.8266 -7.73193 -14.8707
ltibia 13.8795
lfoot 0.293526 -14.7077
ltoes -11.4609
2116
root 10.1879 17.8545 9.11084 358.779 -52.4107 1.82904
lowerback 8.98341 1.52281 1.25825
upperback 1.54074 2.15135 0.892363
thorax -3.42319 1.04631 -0.0355887
lowerneck -16.5601 -4.88052 -11.7163
upperneck 37.3618 -6.87228 6.90817
head 17.0954 -3.79176 3.77957
rclavicle 1.21855e-013 -1.98785e-014
rhumerus -35.2682 -12.2322 -76.5035
rradius 40.2522
rwrist 0.593315
rhand -16.1518 8.84731
rfingers 7.12502
rthumb 10.0537 -20.8925
lclavicle 1.21855e-013 -1.98785e-014
lhumerus -35.6169 4.80614 84.5008
lradius 32.3706
lwrist -8.79878
lhand -17.7578 25.3444
lfingers 7.12502
lthumb 8.50404 55.1532
rfemur 5.39101 4.59814 26.1449
rtibia 31.3617
rfoot -12.3895 6.25765
rtoes 4.2731
lfemur -15.2804 -7.193 -15.4192
ltibia 14.1296
lfoot -0.547165 -13.4415
ltoes -15.2641
2117
root 10.1053 17.8689 9.20631 357.953 -53.0566 2.71622
lowerback 8.97368 1.60893 0.579057
upperback 1.562 2.19404 0.697638
thorax -3.41332 1.07463 0.139484
lowerneck -16.5238 -4.89123 -11.6551
upperneck 37.4621 -7.02029 7.09783
head 17.1677 -3.82713 3.8298
rclavicle 1.11965e-013 -3.97569e-016
rhumerus -35.4388 -12.5214 -76.2868
rradius 39.6749
rwrist 0.600438
rhand -15.9265 9.0324
rfingers 7.12502
rthumb 10.2711 -20.6968
lclavicle 1.11965e-013 -3.97569e-016
lhumerus -35.5176 4.65247 84.4287
lradius 32.1255
lwrist -8.58388
lhand -18.0185 25.3722
lfingers 7.12502
lthumb 8.25252 55.191
rfemur 4.88449 4.7707 25.4046
rtibia 33.149
rfoot -11.3333 6.60166
rtoes 3.30645
lfemur -14.6499 -6.71572 -16.1602
ltibia 14.2422
lfoot -1.14405 -12.9225
ltoes -17.0039
2118
root 10.0268 17.8798 9.30257 357.081 -53.6493 3.61277
lowerback 9.10247 1.6509 -0.0624846
upperback 1.51656 2.18294 0.512605
thorax -3.5488 1.0755 0.304503
lowerneck -16.3933 -4.88381 -11.5946
upperneck 37.5423 -7.12248 7.21255
head 17.1949 -3.85625 3.85481
rclavicle -2.53947e-014 -6.75868e-015
rhumerus -35.6418 -13.0111 -75.9882
rradius 38.9636
rwrist 0.872681
rhand -15.5829 9.4171
rfingers 7.12502
rthumb 10.6025 -20.2954
lclavicle -2.53947e-014 -6.75868e-015
lhumerus -35.5346 4.70292 84.2555
lradius 31.8196
lwrist -8.41821
lhand -18.2587 25.1363
lfingers 7.12502
lthumb 8.02063 54.9641
rfemur 4.21715 4.70688 24.5771
rtibia 35.1736
rfoot -9.99901 7.1198
rtoes 3.21565
lfemur -13.8939 -6.36932 -16.8555
ltibia 14.1491
lfoot -1.20057 -13.3224
ltoes -15.5666
